<svg xmlns="http://www.w3.org/2000/svg" version="1.1" id="Layer_1" viewBox="0 0 200 92.2"><path fill="#86BC25" d="M189.4 32.1c0-2.9 2.4-5.3 5.3-5.3s5.3 2.4 5.3 5.3 -2.4 5.3-5.3 5.3S189.4 35 189.4 32.1L189.4 32.1"/><path fill="#FFFFFF" d="M30.4 17.7c0 6.1-1.6 10.8-4.9 14.1s-7.9 5-13.9 5H0V0.2h12.4c5.7 0 10.2 1.5 13.3 4.5S30.4 12 30.4 17.7M20.4 18c0-3.3-0.7-5.8-2-7.5 -1.3-1.6-3.3-2.4-6-2.4H9.7v20.5h2.1c2.9 0 5.1-0.9 6.5-2.6C19.6 24.3 20.3 21.6 20.4 18M62.5 36.8h9.2V0h-9.2C62.5 0 62.5 36.8 62.5 36.8zM101.9 23.1c0 4.5-1.2 8-3.5 10.5s-5.6 3.8-9.9 3.8c-3.6 0.2-7.1-1.2-9.7-3.8 -2.4-2.6-3.6-6-3.6-10.4s1.2-7.8 3.5-10.4c2.3-2.5 5.6-3.7 9.9-3.7 2.4-0.1 4.9 0.5 7 1.7 2 1.1 3.6 2.8 4.7 4.9C101.4 17.9 102 20.5 101.9 23.1M84.6 23.1c-0.1 1.8 0.2 3.7 0.9 5.4 0.5 1.2 1.8 1.9 3.1 1.9 1.3 0.1 2.5-0.7 3-1.9 0.7-1.7 1-3.5 0.9-5.4 0.1-1.8-0.2-3.6-0.9-5.3 -0.9-1.7-3.1-2.3-4.8-1.3 -0.6 0.3-1 0.8-1.3 1.3C84.8 19.5 84.5 21.3 84.6 23.1M105.6 36.8h9.2V9.5h-9.2V36.8L105.6 36.8zM105.6 6.2h9.2V0h-9.2V6.2L105.6 6.2zM133.5 29.8c-1.7 0-2.5-0.9-2.5-2.6V16.5h5.9v-7H131V0.9l-9.3 1.6v7h-3.2v7.1h3.2v11.2c0 3.2 0.7 5.6 2 7.2 1.3 1.6 3.6 2.3 6.7 2.3 1.3 0 2.6-0.1 3.9-0.3 1.2-0.3 2.4-0.7 3.6-1.2v-6.9C136.5 29.5 135 29.8 133.5 29.8M154.8 29.8c-1.7 0-2.5-0.9-2.5-2.6V16.5h5.9v-7h-5.9V0.9L143 2.4v7.1h-3.2v7.1h3.2v11.3c0 3.2 0.7 5.6 2 7.2 1.3 1.6 3.6 2.3 6.7 2.3 1.3 0 2.6-0.1 3.9-0.3 1.2-0.3 2.4-0.7 3.6-1.2V29C157.8 29.5 156.3 29.8 154.8 29.8M183.8 12.2c-2.2-2.1-5.3-3.2-9.3-3.2 -4.2 0-7.5 1.2-9.8 3.7s-3.4 6-3.4 10.6c0 4.5 1.2 7.9 3.7 10.3s5.9 3.6 10.4 3.6c1.8 0 3.7-0.1 5.5-0.4 1.6-0.3 3.1-0.8 4.4-1.5l-1.3-6.2c-1 0.4-2 0.7-3 1 -1.5 0.3-3 0.5-4.5 0.5 -1.5 0.1-3-0.4-4.2-1.3 -1-0.9-1.6-2.2-1.6-3.6h16.5v-4.2C187.2 17.5 186.1 14.4 183.8 12.2M170.9 19.8c0-1.2 0.5-2.4 1.3-3.3 0.7-0.7 1.7-1 2.7-1 1.1 0 2.1 0.4 2.8 1.2 0.7 0.9 1.1 2 1.1 3.2L170.9 19.8 170.9 19.8zM55.6 12.2C53.4 10.1 50.3 9 46.3 9c-4.2 0-7.5 1.2-9.8 3.7s-3.4 6-3.4 10.6c0 4.5 1.2 7.9 3.7 10.3s5.9 3.6 10.4 3.6c1.8 0 3.7-0.1 5.5-0.4 1.6-0.3 3.1-0.8 4.5-1.5l-1.4-6.2c-1 0.4-2 0.7-3 1 -1.5 0.3-3 0.5-4.5 0.5 -1.5 0.1-3-0.4-4.2-1.3 -1-0.9-1.6-2.2-1.6-3.6H59v-4.2C58.9 17.5 57.8 14.4 55.6 12.2M42.6 19.8c0-1.2 0.5-2.4 1.3-3.3 0.7-0.7 1.7-1 2.7-1 1.1 0 2.1 0.4 2.8 1.2 0.7 0.9 1.1 2 1.1 3.2L42.6 19.8 42.6 19.8zM26.3 62.9c0 5.8-1.5 10.2-4.6 13.2s-7.5 4.5-13.4 4.5H0V45.9h9.4c5.5 0 9.7 1.4 12.6 4.3S26.3 57.4 26.3 62.9zM23.7 63c0-5-1.3-8.7-3.8-11.2s-6.2-3.7-11.1-3.7H2.4v30.3h5.7C18.5 78.4 23.7 73.3 23.7 63L23.7 63zM33.2 80.5h-2.3V54.8h2.3C33.2 54.8 33.2 80.6 33.2 80.5zM33.2 51.8h-2.3v-3.2h2.3V51.8zM65.6 80.6h-2.3V54.8h2.3V80.6zM65.6 51.8h-2.3v-3.2h2.3V51.8zM59.1 54.8v1.6l-5.3 0.3c1.4 1.6 2.1 3.7 2.1 5.8 0.1 2.3-0.8 4.4-2.5 6 -1.8 1.6-4.2 2.4-6.6 2.3 -0.8 0-1.6 0-2.5-0.1 -0.8 0.4-1.6 1-2.1 1.7 -0.5 0.6-0.7 1.3-0.7 2.1 0 0.7 0.3 1.4 0.9 1.8 1 0.5 2.1 0.6 3.1 0.6H50c2.3-0.1 4.5 0.4 6.4 1.7 1.5 1.2 2.4 3.1 2.2 5 0.1 2.5-1.2 4.9-3.3 6.3 -2.2 1.5-5.4 2.2-9.4 2.2 -3.2 0-5.7-0.6-7.5-1.9 -1.7-1.2-2.7-3.1-2.7-5.2 -0.1-1.6 0.5-3.2 1.7-4.4 1.2-1.2 2.8-2.1 4.5-2.4 -0.7-0.3-1.4-0.8-1.9-1.4s-0.7-1.3-0.7-2.1c0-1.7 1.1-3.2 3.3-4.6 -1.4-0.6-2.7-1.6-3.5-2.9 -0.8-1.4-1.3-2.9-1.2-4.5 -0.1-2.3 0.8-4.6 2.5-6.2 1.8-1.6 4.2-2.5 6.6-2.3 1.3 0 2.7 0.1 3.9 0.5L59.1 54.8 59.1 54.8zM38.3 84.9c0 3.5 2.6 5.3 7.9 5.3 6.8 0 10.1-2.2 10.1-6.5 0.1-1.3-0.5-2.6-1.6-3.4 -1.6-0.8-3.4-1.1-5.1-1h-4.2C40.7 79.4 38.3 81.2 38.3 84.9zM40.3 62.8c-0.1 1.7 0.6 3.4 1.8 4.6 1.3 1.1 3.1 1.7 4.8 1.6 1.8 0.1 3.6-0.5 4.9-1.6 1.2-1.3 1.8-3 1.7-4.7 0.1-1.8-0.5-3.6-1.8-4.9 -1.4-1.2-3.1-1.8-4.9-1.7 -1.8-0.1-3.6 0.6-4.9 1.8C40.8 59.3 40.1 61 40.3 62.8L40.3 62.8zM103.4 80.5l-0.6-4.1h-0.2c-1.1 1.5-2.4 2.7-4 3.5 -1.5 0.7-3.2 1.1-4.8 1 -2.2 0.1-4.3-0.5-5.9-1.9 -1.5-1.4-2.2-3.4-2.1-5.4 -0.1-2.4 1.1-4.6 3.1-5.8 2.1-1.4 5.1-2.1 9.1-2.2l4.9-0.1v-1.7c0.1-2-0.4-3.9-1.5-5.5 -1-1.2-2.6-1.9-4.8-1.9 -2.6 0.1-5.1 0.7-7.4 2l-0.9-2c2.6-1.3 5.5-2 8.4-2 2.8 0 4.9 0.7 6.3 2.2s2.1 3.8 2.1 6.9v17.1L103.4 80.5 103.4 80.5zM93.9 78.9c4.5 0.4 8.5-2.9 8.9-7.5 0-0.5 0-1 0-1.4v-2.5l-4.5 0.2c-3.6 0.2-6.2 0.7-7.7 1.7 -1.5 0.9-2.4 2.7-2.3 4.5 -0.1 1.4 0.5 2.8 1.5 3.8C90.9 78.5 92.4 79 93.9 78.9zM114 80.6h-2.3V43.7h2.3V80.6zM79.6 78.9c1.3 0 2.6-0.1 3.9-0.4v1.9c-1.3 0.4-2.6 0.6-3.9 0.6 -2.3 0-3.9-0.6-5-1.8S73 76.1 73 73.5V56.8h-4v-2h3.8V49l2.4-0.5v6.2h7.6v2h-7.6V73c-0.1 1.5 0.2 3.1 1 4.4C77 78.5 78.3 79.1 79.6 78.9z"/></svg>